<svg width="129" height="31" viewBox="0 0 129 31" fill="none" xmlns="http://www.w3.org/2000/svg">
<g id="babylon">
<path id="Vector" fill-rule="evenodd" clip-rule="evenodd" d="M2.93477 11.3071C4.5142 6.37497 9.16533 2.80177 14.6572 2.80177C21.4493 2.80177 26.9553 8.26745 26.9553 15.0095C26.9553 21.2727 22.2037 26.4343 16.0837 27.136V23.2916C18.7666 22.8404 21.02 21.1376 22.2125 18.8097H18.8051C17.7738 19.9167 16.2977 20.61 14.6584 20.61C11.5406 20.61 9.01307 18.1026 9.01307 15.0095C9.01307 11.9165 11.5406 9.40923 14.6584 9.40923C16.3465 9.40923 17.8616 10.1442 18.8962 11.3094H22.2628C20.8835 8.52507 17.9966 6.609 14.6584 6.609C9.98169 6.609 6.19043 10.3701 6.19043 15.0095C6.19043 19.1726 9.24311 22.6285 13.2491 23.2942V27.138C8.418 26.5914 4.43673 23.2661 2.96718 18.8119H0.0259259C1.72202 25.2602 7.62984 30.0189 14.6572 30.0189C23.008 30.0189 29.7779 23.2991 29.7779 15.0095C29.7779 6.71999 23.008 1.62629e-09 14.6572 1.62629e-09C7.59342 -0.000102107 1.66091 4.8081 0 11.3071H2.93477ZM43.786 20.5328H40.4933V15.7018L41.4326 15.6548H43.4043C44.4222 15.6392 45.2097 15.8601 45.7664 16.3178C46.339 16.7598 46.6254 17.3755 46.6254 18.1649C46.6254 18.8911 46.3708 19.4672 45.8618 19.8934C45.3528 20.3196 44.6609 20.5328 43.786 20.5328ZM46.9598 14.4269C47.4082 14.1325 47.7819 13.7921 48.0809 13.4055C48.6216 12.7109 48.8921 11.9295 48.8921 11.0613C48.8921 10.0352 48.6613 9.18276 48.2001 8.50414C47.7388 7.80949 47.0865 7.28853 46.2435 6.94126C45.4165 6.57816 44.4301 6.39661 43.285 6.39661L40.4933 6.42796V6.4203H37.7733V22.9952H44.0007C45.1142 22.9952 46.0765 22.8137 46.8878 22.4506C47.699 22.0876 48.3274 21.5588 48.7728 20.8642C49.2182 20.1697 49.4408 19.333 49.4408 18.3542C49.4408 17.2335 49.1387 16.3178 48.5343 15.6077C48.1257 15.1275 47.6009 14.7339 46.9598 14.4269ZM40.4933 8.66966H43.1418C44.0643 8.65404 44.7803 8.85141 45.2892 9.26169C45.8141 9.67216 46.0764 10.2562 46.0764 11.0139C46.0764 11.7558 45.8459 12.3399 45.3847 12.7661C44.9393 13.1765 44.3188 13.3819 43.5236 13.3819H40.4933V8.66966ZM60.2364 21.7333L60.304 22.9952H62.8094L62.8809 16.5074C62.8809 15.2761 62.69 14.2423 62.3082 13.4055C61.9265 12.5688 61.3459 11.9376 60.5664 11.5113C59.8029 11.0849 58.8405 10.8719 57.6794 10.8719C56.7726 10.8719 55.9854 11.0062 55.3172 11.2746C54.6651 11.5429 54.1243 11.9058 53.6949 12.3638C53.2652 12.8214 52.9153 13.3107 52.645 13.8317L55.0786 14.6841C55.3649 14.1949 55.7229 13.8317 56.1524 13.5949C56.5818 13.3581 57.075 13.2397 57.6317 13.2397C58.2361 13.2397 58.7213 13.3819 59.0872 13.6659C59.4688 13.9501 59.7473 14.3606 59.9222 14.8973C60.0153 15.1829 60.0837 15.5065 60.1273 15.8681H57.1545C55.6593 15.8681 54.4901 16.1917 53.6471 16.8389C52.8199 17.4861 52.4064 18.4252 52.4064 19.6567C52.4064 20.8089 52.7961 21.701 53.5755 22.3322C54.3708 22.9637 55.4843 23.2794 56.916 23.2794C58.3634 23.2794 59.429 22.8216 60.1132 21.906C60.1557 21.8495 60.1968 21.7919 60.2364 21.7333ZM60.1848 18.0939V17.9045H58.0135C56.9476 17.9045 56.2001 18.0544 55.7706 18.3543C55.3412 18.6384 55.1263 19.049 55.1263 19.5856C55.1263 20.0434 55.3094 20.4065 55.6752 20.6748C56.0569 20.9273 56.5818 21.0536 57.2498 21.0536C57.8385 21.0536 58.3474 20.9196 58.777 20.651C59.2224 20.3671 59.5643 20.004 59.8029 19.5618C60.0574 19.1042 60.1848 18.6149 60.1848 18.0939ZM66.7816 22.9952V6.4203H69.4537V12.885C69.7751 12.3871 70.1647 11.9765 70.6229 11.6531C71.3546 11.1321 72.2216 10.8717 73.2237 10.8717C74.3054 10.8717 75.2438 11.1321 76.0392 11.6531C76.8504 12.1582 77.4787 12.8765 77.9241 13.8079C78.3854 14.7234 78.6161 15.8126 78.6161 17.0755C78.6161 18.3225 78.3854 19.4117 77.9241 20.3431C77.4787 21.2746 76.8504 22.0006 76.0392 22.5217C75.2438 23.0268 74.3054 23.2792 73.2237 23.2792C72.2216 23.2792 71.3546 23.0268 70.6229 22.5217C70.1514 22.1784 69.7523 21.7461 69.4257 21.2248L69.3107 22.995H66.7816V22.9952ZM69.8356 19.0411C69.5811 18.4726 69.4537 17.8176 69.4537 17.0757C69.4537 16.3337 69.5811 15.6787 69.8356 15.1103C70.106 14.5421 70.4799 14.1 70.957 13.7843C71.4342 13.4686 71.975 13.3107 72.5795 13.3107C73.2317 13.3107 73.8043 13.4686 74.2973 13.7843C74.7905 14.1 75.1723 14.5421 75.4427 15.1103C75.729 15.6787 75.8721 16.3337 75.8721 17.0757C75.8721 17.8176 75.721 18.4726 75.4189 19.0411C75.1326 19.6093 74.7427 20.0592 74.2498 20.3906C73.7566 20.7064 73.192 20.8642 72.5556 20.8642C71.951 20.8642 71.4104 20.7064 70.9332 20.3906C70.4718 20.0592 70.106 19.6093 69.8356 19.0411ZM82.247 27.802C82.7244 27.9441 83.1538 28.0152 83.5355 28.0152C84.331 28.0152 84.9831 27.8574 85.4921 27.5416C86.001 27.2417 86.4226 26.8076 86.7567 26.2392C87.1066 25.671 87.4485 25.008 87.7826 24.2503L93.3181 11.1561H90.4072L86.8728 19.9143L83.2253 11.1561H80.3144L85.6182 22.9047L84.9672 24.416C84.8081 24.7948 84.5933 25.079 84.323 25.2684C84.0684 25.4736 83.7502 25.5762 83.3686 25.5762C83.2096 25.5762 83.0027 25.529 82.7482 25.4342C82.4936 25.3553 82.2152 25.2448 81.9131 25.1027L80.9108 27.2574C81.339 27.4779 81.7862 27.6602 82.247 27.802ZM96.1026 22.9952V6.4203H98.7747V22.9951H96.1026V22.9952ZM105.224 22.4981C106.162 23.019 107.228 23.2794 108.422 23.2794C109.599 23.2794 110.649 23.019 111.571 22.4981C112.494 21.9614 113.21 21.2273 113.719 20.2961C114.227 19.3645 114.482 18.2912 114.482 17.0757C114.482 15.8602 114.22 14.7868 113.694 13.8555C113.186 12.924 112.47 12.1979 111.547 11.677C110.624 11.1403 109.567 10.8719 108.374 10.8719C107.181 10.8719 106.123 11.1403 105.2 11.677C104.278 12.1979 103.554 12.924 103.03 13.8555C102.52 14.7868 102.266 15.8602 102.266 17.0757C102.266 18.2912 102.528 19.3645 103.053 20.2961C103.578 21.2273 104.302 21.9614 105.224 22.4981ZM110.163 20.3671C109.654 20.6828 109.074 20.8406 108.422 20.8406C107.754 20.8406 107.157 20.6828 106.633 20.3671C106.123 20.0355 105.718 19.5936 105.415 19.0411C105.129 18.4726 104.985 17.8176 104.985 17.0757C104.985 16.3337 105.129 15.6787 105.415 15.1103C105.701 14.5421 106.1 14.1 106.608 13.7843C107.117 13.4686 107.706 13.3107 108.374 13.3107C109.042 13.3107 109.63 13.4765 110.14 13.8081C110.649 14.1238 111.046 14.5657 111.332 15.1341C111.635 15.6866 111.786 16.3337 111.786 17.0757C111.786 17.8176 111.643 18.4726 111.357 19.0411C111.07 19.5936 110.673 20.0355 110.163 20.3671ZM117.991 11.1561H120.496L120.622 12.8026C120.938 12.2963 121.325 11.8896 121.784 11.5823C122.468 11.1087 123.28 10.8719 124.218 10.8719C125.665 10.8719 126.779 11.314 127.558 12.1979C128.354 13.0662 128.751 14.4079 128.751 16.2233V22.9952H126.079V16.9336C126.079 15.9865 125.968 15.2604 125.745 14.7551C125.538 14.2343 125.235 13.8712 124.838 13.6659C124.457 13.4608 124.003 13.3581 123.478 13.3581C122.587 13.3425 121.896 13.6344 121.402 14.2343C120.909 14.8341 120.662 15.6943 120.662 16.8153V22.9952H117.991V11.1561Z" fill="#808080"/>
<path id="Vector_2" d="M17.7535 15.003C17.7535 16.7034 16.3646 18.0817 14.6513 18.0817C12.9381 18.0817 11.5492 16.7034 11.5492 15.003C11.5492 13.3025 12.9381 11.9241 14.6513 11.9241C16.3646 11.9241 17.7535 13.3025 17.7535 15.003Z" fill="#808080"/>
</g>
</svg>
