<svg width="156" height="31" viewBox="0 0 156 31" fill="none" xmlns="http://www.w3.org/2000/svg">
<g id="binance">
<path id="Vector" d="M9.54266 12.6899L15.6021 6.82678L21.664 12.6947L25.1878 9.28127L15.6021 0L6.0164 9.27888L9.54266 12.6899Z" fill="#808080"/>
<path id="Vector_2" d="M6.10352e-05 15.1008L3.52503 11.6886L7.05 15.1008L3.52503 18.5129L6.10352e-05 15.1008Z" fill="#808080"/>
<path id="Vector_3" d="M9.54266 17.5106L15.6021 23.3761L21.664 17.5082L25.1903 20.9169L25.1878 20.9192L15.6021 30.2005L6.0164 20.924L6.01147 20.9192L9.54266 17.5106Z" fill="#808080"/>
<path id="Vector_4" d="M24.1483 15.1016L27.6732 11.6895L31.1982 15.1016L27.6732 18.5137L24.1483 15.1016Z" fill="#808080"/>
<path id="Vector_5" d="M19.1777 15.0991L15.6021 11.6356L12.958 14.195L12.6525 14.4884L12.0266 15.0943L12.0217 15.0991L12.0266 15.1062L15.6021 18.5649L19.1777 15.1015L19.1801 15.0991H19.1777Z" fill="#808080"/>
<g id="Group">
<path id="Vector_6" d="M36.6981 7.31851H44.3666C46.269 7.31851 47.7081 7.79558 48.6839 8.7497C49.0515 9.10215 49.3414 9.52323 49.5358 9.98739C49.7302 10.4516 49.8252 10.9491 49.815 11.4499V11.4952C49.8216 11.9054 49.7626 12.3142 49.64 12.7069C49.5308 13.0451 49.3723 13.3663 49.1693 13.6611C48.9801 13.939 48.7511 14.1896 48.4892 14.4053C48.2333 14.6185 47.9531 14.8026 47.6539 14.9539C48.5167 15.2448 49.2926 15.7363 49.9135 16.3851C50.4622 16.9894 50.7366 17.8242 50.7366 18.8897V18.935C50.7522 19.6004 50.6026 20.2597 50.3004 20.8576C50.0076 21.4084 49.5784 21.8805 49.0511 22.2315C48.4549 22.6184 47.7911 22.8972 47.092 23.0545C46.2614 23.2451 45.41 23.3372 44.5564 23.3288H36.6981V7.31851ZM43.5978 13.7923C44.2613 13.8233 44.9215 13.6851 45.5125 13.3915C45.7429 13.2612 45.9311 13.0711 46.0557 12.8426C46.1802 12.6141 46.2362 12.3564 46.2172 12.0987V12.0534C46.2294 11.8159 46.1796 11.5793 46.0724 11.3655C45.9651 11.1516 45.8039 10.9673 45.6037 10.8297C45.1946 10.5482 44.604 10.4075 43.8319 10.4075H40.244V13.7923H43.5978ZM44.5662 20.2445C45.2272 20.2804 45.8852 20.134 46.4637 19.8223C46.689 19.6822 46.8714 19.4861 46.9919 19.2545C47.1124 19.023 47.1665 18.7644 47.1487 18.5057V18.4603C47.1576 18.2144 47.104 17.9702 46.9928 17.7489C46.8815 17.5277 46.7159 17.3363 46.5105 17.1913C46.0866 16.8733 45.4016 16.7143 44.4553 16.7143H40.244V20.2445H44.5662Z" fill="#808080"/>
<path id="Vector_7" d="M55.3052 7.31815H58.9448V23.3332H55.3052V7.31815Z" fill="#808080"/>
<path id="Vector_8" d="M64.4523 7.31815H67.8085L75.5658 17.1743V7.31815H79.1586V23.3332H76.0611L68.05 13.1526V23.3332H64.4523V7.31815Z" fill="#808080"/>
<path id="Vector_9" d="M90.1784 7.20367H93.5297L100.619 23.3332H96.8194L95.3064 19.7409H88.3106L86.7976 23.3332H83.0865L90.1784 7.20367ZM94.0078 16.6304L91.8048 11.4352L89.6117 16.6304H94.0078Z" fill="#808080"/>
<path id="Vector_10" d="M104.555 7.31815H107.911L115.663 17.1743V7.31815H119.256V23.3332H116.158L108.147 13.1526V23.3332H104.555V7.31815Z" fill="#808080"/>
<path id="Vector_11" d="M132.356 23.6146C131.196 23.6243 130.046 23.4068 128.975 22.9754C127.966 22.5724 127.052 21.9781 126.285 21.2276C125.517 20.4771 124.913 19.5856 124.507 18.6055C124.079 17.5803 123.862 16.4839 123.869 15.3781V15.3328C123.85 13.1532 124.716 11.0536 126.281 9.48641C127.051 8.7209 127.973 8.114 128.992 7.70219C130.1 7.25796 131.29 7.0364 132.489 7.051C133.198 7.04588 133.906 7.10739 134.603 7.23467C135.199 7.34384 135.782 7.5125 136.343 7.73797C136.851 7.94517 137.335 8.20595 137.784 8.51559C138.223 8.81758 138.635 9.15427 139.016 9.52219L136.702 12.1079C136.111 11.5799 135.448 11.1328 134.731 10.7793C134.027 10.4533 133.254 10.29 132.474 10.3022C131.824 10.2955 131.181 10.4226 130.586 10.6751C129.991 10.9276 129.459 11.2998 129.024 11.7668C128.593 12.2326 128.255 12.7722 128.028 13.3578C127.791 13.9767 127.672 14.6321 127.676 15.2923V15.3376C127.674 15.9968 127.793 16.6511 128.028 17.2697C128.252 17.8574 128.587 18.4 129.014 18.8702C129.445 19.3431 129.977 19.7206 130.572 19.9774C131.167 20.2342 131.812 20.3643 132.464 20.3587C133.294 20.384 134.117 20.2111 134.862 19.8554C135.57 19.4815 136.226 19.0196 136.811 18.4814L139.127 20.7475C138.718 21.1772 138.276 21.5759 137.804 21.9402C137.34 22.295 136.837 22.5982 136.303 22.8442C135.735 23.1033 135.135 23.2947 134.519 23.4143C133.807 23.5525 133.082 23.6196 132.356 23.6146Z" fill="#808080"/>
<path id="Vector_12" d="M143.422 7.31815H155.874V10.4525H147.003V13.7013H154.814V16.8356H147.015V20.1989H155.997V23.3332H143.43L143.422 7.31815Z" fill="#808080"/>
</g>
</g>
</svg>
