<svg width="164" height="26" viewBox="0 0 164 26" fill="none" xmlns="http://www.w3.org/2000/svg">
<g id="bouncebit">
<path id="Vector" d="M163.167 19.4399V22.6709C162.259 23.1249 161.404 23.3118 160.31 23.3118C157.373 23.3118 155.53 21.6295 155.53 18.4251V11.9632H152.646V8.78553H155.53V4.56647H159.215V8.78553H163.3V11.9632H159.215V17.5707C159.215 19.2262 159.963 19.8938 161.298 19.8938C161.992 19.8938 162.633 19.7336 163.167 19.4399Z" fill="#808080"/>
<path id="Vector_2" d="M152.12 5.47432C152.12 6.72933 151.106 7.66392 149.637 7.66392C148.195 7.66392 147.18 6.72933 147.18 5.47432C147.18 4.16589 148.195 3.23129 149.637 3.23129C151.106 3.23129 152.12 4.16589 152.12 5.47432ZM151.533 23.0447H147.821V8.78546H151.533V23.0447Z" fill="#808080"/>
<path id="Vector_3" d="M145.726 17.4106C145.726 20.9621 143.109 23.0449 138.89 23.0449H131.386V3.87234H138.596C142.629 3.87234 145.112 5.68812 145.112 8.97253C145.112 10.7349 144.123 12.1502 142.415 13.0313C144.551 13.779 145.726 15.3011 145.726 17.4106ZM138.276 7.07665H135.072V11.536H138.276C140.252 11.536 141.266 10.6816 141.266 9.29295C141.266 7.93115 140.252 7.07665 138.276 7.07665ZM138.57 14.767H135.072V19.8406H138.57C140.759 19.8406 141.907 18.8792 141.907 17.2504C141.907 15.7284 140.759 14.767 138.57 14.767Z" fill="#808080"/>
<path id="Vector_4" d="M122.332 23.2851C118.059 23.2851 115.202 20.3212 115.202 15.8618C115.202 11.6161 118.166 8.51852 122.279 8.51852C126.791 8.51852 129.782 12.1768 129.114 16.8231H118.994C119.234 19.1462 120.356 20.428 122.251 20.428C123.88 20.428 124.975 19.6269 125.402 18.2116H129.088C128.286 21.4427 125.803 23.2851 122.332 23.2851ZM122.198 11.2422C120.462 11.2422 119.368 12.3637 119.047 14.4733H125.189C125.082 12.4972 123.961 11.2422 122.198 11.2422Z" fill="#808080"/>
<path id="Vector_5" d="M107.424 23.3119C103.312 23.3119 100.481 20.2677 100.481 15.9152C100.481 11.6428 103.418 8.51852 107.424 8.51852C111.136 8.51852 113.886 11.0286 114.34 14.8738H110.441C110.255 12.9779 109.106 11.803 107.424 11.803C105.501 11.803 104.273 13.3784 104.273 15.9152C104.273 18.4786 105.474 20.0274 107.424 20.0274C109.133 20.0274 110.227 18.9059 110.441 16.9566H114.34C113.913 20.8819 111.242 23.3119 107.424 23.3119Z" fill="#808080"/>
<path id="Vector_6" d="M89.8332 15.2744V23.0449H86.1212V8.78561H89.5391V10.815C90.581 9.39979 92.0493 8.51852 93.9185 8.51852C96.7757 8.51852 98.7518 10.3877 98.7518 13.8324V23.0449H95.0664V15.0874C95.0664 12.9779 94.239 11.803 92.557 11.803C91.0878 11.803 89.8332 12.9779 89.8332 15.2744Z" fill="#808080"/>
<path id="Vector_7" d="M79.6353 17.0366V8.78546H83.3205V23.0447H79.9293V21.1755C79.1548 22.4305 77.5792 23.3117 75.7635 23.3117C72.9063 23.3117 70.8235 21.576 70.8235 17.8644V8.78546H74.5353V17.1434C74.5353 19.1461 75.5231 20.0273 77.0185 20.0273C78.3537 20.0273 79.6353 18.9592 79.6353 17.0366Z" fill="#808080"/>
<path id="Vector_8" d="M61.886 23.3119C57.7472 23.3119 54.6497 20.0542 54.6497 15.9152C54.6497 11.7496 57.7472 8.51852 61.886 8.51852C66.0249 8.51852 69.1226 11.7496 69.1226 15.9152C69.1226 20.0542 66.0249 23.3119 61.886 23.3119ZM61.886 20.0274C63.7285 20.0274 65.3041 18.5588 65.3041 15.9152C65.3041 13.2717 63.7285 11.8297 61.886 11.8297C60.0435 11.8297 58.4682 13.2717 58.4682 15.9152C58.4682 18.5588 60.0435 20.0274 61.886 20.0274Z" fill="#808080"/>
<path id="Vector_9" d="M53.489 17.4106C53.489 20.9621 50.8721 23.0449 46.653 23.0449H39.1497V3.87234H46.3594C50.3914 3.87234 52.875 5.68812 52.875 8.97253C52.875 10.7349 51.8868 12.1502 50.1779 13.0313C52.3142 13.779 53.489 15.3011 53.489 17.4106ZM46.039 7.07667H42.8346V11.536H46.039C48.0151 11.536 49.0297 10.6816 49.0297 9.29295C49.0297 7.93115 48.0151 7.07667 46.039 7.07667ZM46.3328 14.767H42.8346V19.8406H46.3328C48.5222 19.8406 49.6707 18.8792 49.6707 17.2504C49.6707 15.7284 48.5222 14.767 46.3328 14.767Z" fill="#808080"/>
<path id="Vector_10" d="M24.8101 0.0016466C24.8059 0.262462 24.7997 0.523275 24.7831 0.784096C24.6344 3.17923 23.7419 5.52035 22.257 7.40528C21.6876 8.14929 20.9913 8.78006 20.3367 9.44606C16.3892 13.3957 12.4395 17.3423 8.49194 21.2929C7.35306 22.4173 6.70052 24.0019 6.69844 25.6011C4.72204 25.6021 2.74567 25.6032 0.770325 25.6001C0.77448 25.3735 0.77968 25.148 0.789032 24.9225C0.937627 22.0712 2.15442 19.2917 4.1495 17.2498C8.45867 12.9385 12.771 8.62934 17.0802 4.31705C18.2232 3.1917 18.8778 1.60395 18.8809 0.0016466C20.8573 0.000607383 22.8337 -0.00147106 24.8101 0.0016466Z" fill="#808080"/>
<path id="Vector_11" d="M24.4878 22.8235C24.7029 23.7328 24.8069 24.6669 24.811 25.6011C22.8346 25.6052 20.8572 25.5958 18.8808 25.6052C18.8736 24.3978 18.5151 23.1913 17.8314 22.1939C17.0385 21.0113 15.8165 20.1374 14.4532 19.7384C15.9474 18.2493 17.4344 16.7541 18.9296 15.2661C21.7 16.8996 23.7584 19.6896 24.4878 22.8235Z" fill="#808080"/>
<path id="Vector_12" d="M11.127 5.86308C9.63387 7.35316 8.14582 8.84743 6.65054 10.3364C4.20552 8.88892 2.30396 6.54992 1.39994 3.85448C0.980139 2.61587 0.772314 1.30867 0.768158 0.00146737C2.74558 0.000428152 4.72198 0.00146647 6.69939 0.000427246C6.70249 1.37829 7.18049 2.74887 8.05023 3.81914C8.83375 4.79591 9.92586 5.51291 11.127 5.86308Z" fill="#808080"/>
<path id="Vector_13" d="M9.82334 0C9.81848 0.432545 9.90792 0.865663 10.1033 1.26103C10.6956 2.59525 12.353 3.30911 13.7297 2.81451C14.9298 2.44343 15.7581 1.23474 15.7607 0H9.82334Z" fill="#808080"/>
<path id="Vector_14" d="M15.7614 25.6021C15.7632 25.3287 15.725 25.0542 15.6421 24.7874C15.5371 24.4175 15.3595 24.0694 15.1215 23.7681C14.257 22.6198 12.5216 22.2905 11.2945 23.0386C10.3785 23.5472 9.83385 24.5733 9.8237 25.6021H15.7614Z" fill="#808080"/>
</g>
</svg>
