<svg width="144" height="38" viewBox="0 0 144 38" fill="none" xmlns="http://www.w3.org/2000/svg">
<g id="coingecko">
<path id="Vector" d="M59.4283 16.4385C59.0379 14.9473 58.0528 13.8558 56.1207 13.8558C53.2757 13.8558 52.0864 16.3112 52.0864 18.8018C52.0864 21.2925 53.2757 23.7499 56.1207 23.7499C58.183 23.7499 59.3242 22.241 59.5024 20.3499H61.7709C61.5847 23.4598 59.3362 25.6056 56.1207 25.6056C52.1424 25.6056 49.7638 22.5133 49.7638 18.8018C49.7638 15.0903 52.1424 12 56.1207 12C59.112 12.0176 61.4726 13.6363 61.7509 16.4385H59.4283ZM63.1464 20.5851C63.1464 17.7123 64.9123 15.637 67.9976 15.637C71.083 15.637 72.8469 17.7123 72.8469 20.5851C72.8469 23.4579 71.081 25.5507 67.9976 25.5507C64.9143 25.5507 63.1464 23.4775 63.1464 20.5851ZM70.7286 20.5851C70.7286 18.9664 69.8917 17.2753 67.9976 17.2753C66.1036 17.2753 65.2647 18.9664 65.2647 20.5851C65.2647 22.2037 66.1016 23.9164 67.9976 23.9164C69.8937 23.9164 70.7286 22.2233 70.7286 20.5851ZM74.6689 12.3096H76.7872V14.2692H74.6689V12.3096ZM74.6689 15.8918H76.7872V25.298H74.6689V15.8918ZM79.0937 15.8918H81.0959V17.2753L81.1339 17.3106C81.4381 16.7988 81.8748 16.3746 82.4 16.0808C82.9252 15.787 83.5202 15.6339 84.1252 15.637C86.2074 15.637 87.5289 16.7286 87.5289 18.8391V25.3058H85.4126V19.3858C85.3745 17.9122 84.7799 17.2753 83.5345 17.2753C82.123 17.2753 81.212 18.3668 81.212 19.7483V25.296H79.0937V15.8918ZM101.638 25.296H100.151L99.7982 23.7695C98.5528 25.151 97.4176 25.6056 95.7938 25.6056C91.8155 25.6056 89.4369 22.5133 89.4369 18.8018C89.4369 15.0903 91.8155 12 95.7938 12C98.693 12 101.128 13.5089 101.48 16.4385H99.2215C98.9973 14.7278 97.4737 13.8558 95.8018 13.8558C92.9588 13.8558 91.7675 16.3112 91.7675 18.8018C91.7675 21.2925 92.9588 23.7499 95.8018 23.7499C98.1804 23.7871 99.4818 22.3781 99.5179 20.1853H95.988V18.4569H101.638V25.296ZM105.522 21.1318C105.522 22.6054 106.339 23.9145 108.105 23.9145C109.333 23.9145 110.075 23.3873 110.448 22.3468H112.45C111.985 24.4024 110.201 25.5468 108.101 25.5468C105.098 25.5468 103.4 23.4912 103.4 20.5988C103.4 17.9259 105.184 15.6331 108.045 15.6331C111.074 15.6331 112.934 18.308 112.58 21.1201L105.522 21.1318ZM110.466 19.7601C110.392 18.4511 109.481 17.2694 108.049 17.2694C106.582 17.2694 105.578 18.3609 105.522 19.7601H110.466ZM120.689 19.0389C120.521 17.8926 119.666 17.2753 118.486 17.2753C117.391 17.2753 115.848 17.8397 115.848 20.6948C115.848 22.2625 116.554 23.9145 118.394 23.9145C119.622 23.9145 120.477 23.1149 120.681 21.7687H122.799C122.399 24.2045 120.867 25.5507 118.394 25.5507C115.391 25.5507 113.729 23.4598 113.729 20.6948C113.729 17.8573 115.309 15.637 118.468 15.637C120.699 15.637 122.595 16.7286 122.799 19.0389H120.689ZM124.591 12.3096H126.711V19.6935L130.55 15.8918H133.152L129.472 19.3486L133.507 25.296H130.91L127.975 20.7301L126.711 21.9313V25.296H124.591V12.3096ZM134.071 20.5851C134.071 17.7123 135.837 15.637 138.921 15.637C142.004 15.637 143.764 17.7123 143.764 20.5851C143.764 23.4579 141.998 25.5507 138.913 25.5507C135.827 25.5507 134.071 23.4775 134.071 20.5851ZM141.654 20.5851C141.654 18.9664 140.817 17.2753 138.921 17.2753C137.025 17.2753 136.19 18.9664 136.19 20.5851C136.19 22.2037 137.027 23.9164 138.921 23.9164C140.815 23.9164 141.654 22.2233 141.654 20.5851Z" fill="#808080"/>
<path id="Vector_2" d="M38.0051 18.5166C38.0217 22.1949 36.9235 25.7955 34.8494 28.863C32.7753 31.9305 29.8184 34.3271 26.3526 35.7499C22.8869 37.1726 19.0679 37.5576 15.3786 36.8561C11.6893 36.1546 8.29542 34.3981 5.62605 31.8088C2.95668 29.2194 1.13174 25.9135 0.381984 22.3091C-0.367772 18.7046 -0.0086683 14.9635 1.41389 11.5588C2.83644 8.15415 5.25856 5.23877 8.37396 3.18135C11.4894 1.12394 15.1581 0.0168843 18.9164 0.000183188C23.9564 -0.0216943 28.7989 1.9168 32.3787 5.38925C35.9584 8.86171 37.9823 13.5837 38.0051 18.5166Z" fill="#808080"/>
<path id="Vector_3" d="M36.5735 18.5203C36.5893 21.9216 35.5743 25.2511 33.6567 28.0878C31.7391 30.9245 29.0052 33.141 25.8006 34.4569C22.596 35.7728 19.0647 36.1291 15.6532 35.4808C12.2417 34.8324 9.10325 33.2085 6.63473 30.8143C4.1662 28.4202 2.47847 25.3634 1.78495 22.0305C1.09144 18.6975 1.42328 15.2382 2.73852 12.0898C4.05377 8.9415 6.29334 6.24558 9.17403 4.343C12.0547 2.44042 15.4472 1.41663 18.9223 1.40109C21.2298 1.39077 23.5168 1.82539 25.6526 2.68013C27.7885 3.53487 29.7314 4.793 31.3705 6.38267C33.0095 7.97234 34.3126 9.86242 35.2054 11.945C36.0981 14.0276 36.563 16.2619 36.5735 18.5203Z" fill="#272727"/>
<path id="Vector_4" d="M19.3228 2.51612C20.4398 2.32096 21.5834 2.32096 22.7004 2.51612C23.8282 2.69103 24.9183 3.04866 25.9259 3.57432C26.927 4.11321 27.794 4.84415 28.6549 5.53393C29.5158 6.22372 30.3748 6.92134 31.1917 7.68951C32.0246 8.44479 32.7517 9.3047 33.354 10.2468C33.975 11.1826 34.4836 12.1853 34.8697 13.2352C35.6208 15.3323 35.8346 17.5777 35.4923 19.7745H35.3802C35.0504 17.6758 34.4989 15.6163 33.7344 13.6291C33.3681 12.6464 32.9367 11.6881 32.443 10.7602C31.9242 9.83509 31.3534 8.93882 30.7332 8.07556C30.1005 7.20181 29.3253 6.43583 28.4387 5.80828C27.5477 5.18708 26.5226 4.7834 25.5295 4.40128C24.5364 4.01915 23.5434 3.63899 22.5122 3.347C21.4811 3.05502 20.426 2.8375 19.3268 2.62586L19.3228 2.51612Z" fill="#808080"/>
<path id="Vector_5" d="M27.9121 12.4455C26.6367 12.083 25.3093 11.5715 23.9758 11.0542C23.8997 10.7249 23.6014 10.3154 23.0008 9.81568C22.1258 9.07299 20.484 9.09258 19.0645 9.42376C17.4988 9.06319 15.9511 8.93581 14.4595 9.28463C2.3163 12.5572 9.20378 20.5583 4.74294 28.5927C5.37762 29.9096 12.2191 37.607 22.1178 35.5357C22.1178 35.5357 18.7341 27.5737 26.3724 23.7525C32.5692 20.6426 37.048 14.8852 27.9121 12.4455Z" fill="#808080"/>
<path id="Vector_6" d="M29.4125 17.68C29.4137 17.8229 29.3715 17.9629 29.2914 18.0823C29.2112 18.2016 29.0966 18.295 28.9621 18.3506C28.8276 18.4062 28.6793 18.4214 28.536 18.3944C28.3926 18.3674 28.2607 18.2993 28.1569 18.1989C28.0531 18.0984 27.9822 17.97 27.953 17.83C27.9239 17.69 27.9378 17.5447 27.9931 17.4125C28.0484 17.2803 28.1426 17.1671 28.2637 17.0873C28.3848 17.0076 28.5274 16.9648 28.6733 16.9644C28.7699 16.9638 28.8656 16.982 28.955 17.0176C29.0444 17.0533 29.1257 17.1059 29.1944 17.1723C29.263 17.2388 29.3176 17.3178 29.355 17.4049C29.3925 17.492 29.412 17.5855 29.4125 17.68Z" fill="#272727"/>
<path id="Vector_7" d="M19.0645 9.41985C19.9495 9.48256 23.1509 10.5055 23.9758 11.0542C23.2931 9.09456 20.9726 8.83981 19.0645 9.41985Z" fill="#808080"/>
<path id="Vector_8" d="M19.9074 14.362C19.9074 15.0209 19.7078 15.6649 19.3338 16.2128C18.9598 16.7606 18.4282 17.1876 17.8062 17.4398C17.1843 17.6919 16.4999 17.7579 15.8397 17.6293C15.1794 17.5008 14.5729 17.1835 14.0969 16.7176C13.6209 16.2517 13.2967 15.6581 13.1654 15.0119C13.0341 14.3657 13.1015 13.6959 13.3591 13.0871C13.6167 12.4784 14.053 11.9581 14.6127 11.5921C15.1725 11.226 15.8305 11.0306 16.5037 11.0306C17.4064 11.0306 18.2722 11.3816 18.9105 12.0064C19.5488 12.6311 19.9074 13.4785 19.9074 14.362Z" fill="#272727"/>
<path id="Vector_9" d="M18.9003 14.3914C18.9007 14.8542 18.7608 15.3068 18.4984 15.6918C18.236 16.0769 17.8627 16.3771 17.4259 16.5545C16.9892 16.7318 16.5084 16.7785 16.0446 16.6884C15.5807 16.5983 15.1546 16.3757 14.82 16.0485C14.4855 15.7214 14.2576 15.3045 14.1652 14.8505C14.0728 14.3966 14.12 13.9261 14.3009 13.4984C14.4818 13.0707 14.7882 12.7052 15.1814 12.448C15.5745 12.1908 16.0368 12.0536 16.5097 12.0536C17.1432 12.0541 17.7507 12.3005 18.1988 12.7387C18.647 13.177 18.8993 13.7713 18.9003 14.3914Z" fill="#808080"/>
<path id="Vector_10" d="M32.1647 19.1454C29.4117 21.0443 26.2803 22.4768 21.8395 22.4768C19.7612 22.4768 19.3408 20.3212 17.9673 21.3755C17.2565 21.9222 14.7638 23.1391 12.7717 23.0529C10.7795 22.9667 7.566 21.8203 6.67503 17.6757C6.32065 21.8203 6.13845 24.8734 4.54873 28.3733C7.71617 33.337 15.2664 37.1641 22.1178 35.518C21.383 30.4857 25.8759 25.5553 28.4086 23.0333C29.3657 22.079 31.2117 20.5191 32.1647 19.1376V19.1454Z" fill="#808080"/>
<path id="Vector_11" d="M32.0566 19.2708C31.1795 20.0091 30.2009 20.6232 29.1494 21.0952C28.1013 21.5827 27.0087 21.9724 25.8859 22.2592C24.7647 22.5434 23.5914 22.757 22.4041 22.6512C21.2168 22.5453 20.0015 22.1495 19.2187 21.2794L19.2567 21.2363C20.2258 21.8497 21.333 22.0652 22.4382 22.0966C23.5603 22.1285 24.6825 22.0371 25.7838 21.8242C26.8964 21.5972 27.985 21.2692 29.0353 20.8444C30.1027 20.4455 31.1075 19.9019 32.0206 19.2297L32.0566 19.2708Z" fill="#272727"/>
</g>
</svg>
