<svg width="87" height="34" viewBox="0 0 87 34" fill="none" xmlns="http://www.w3.org/2000/svg">
<g id="LTP">
<path id="Vector" d="M69.8892 16.6974V7.39751C69.8892 6.96102 69.9639 6.8845 70.3956 6.88492C73.2064 6.88826 76.0171 6.88701 78.8258 6.89872C79.8771 6.9029 80.9171 7.03752 81.921 7.35527C83.7249 7.92554 85.2079 8.92227 86.143 10.6126C86.6406 11.5115 86.865 12.4902 86.9279 13.5062C86.9893 14.3834 86.8998 15.2646 86.6632 16.1117C86.3346 17.285 85.6628 18.3341 84.7334 19.1253C83.9783 19.7733 83.12 20.237 82.1832 20.561C80.9137 21 79.5952 21.1095 78.2641 21.1162C77.0894 21.1221 75.9148 21.1162 74.7401 21.1162C74.4611 21.1162 74.4603 21.1162 74.4603 21.3959C74.4603 22.9217 74.4603 24.4472 74.4603 25.9727C74.4603 26.0697 74.4779 26.1818 74.4364 26.2599C74.3844 26.3565 74.2799 26.4272 74.1956 26.5037C74.183 26.5154 74.1536 26.5125 74.1343 26.5125C72.8271 26.5125 71.5199 26.515 70.2131 26.51C69.9878 26.51 69.901 26.4067 69.8909 26.1847C69.8867 26.0944 69.8888 26.0037 69.8888 25.9129C69.8891 22.8417 69.8892 19.7698 69.8892 16.6974ZM74.433 14.0217C74.433 15.0803 74.4377 16.1393 74.4288 17.1992C74.4288 17.3952 74.4897 17.4462 74.6806 17.445C75.7986 17.4375 76.9174 17.445 78.0367 17.4391C78.7784 17.4337 79.5138 17.3735 80.2236 17.131C81.0954 16.8333 81.7339 16.2885 82.075 15.421C82.3544 14.7065 82.3808 13.9728 82.2428 13.2248C82.0624 12.2557 81.5397 11.547 80.6461 11.1172C79.8276 10.723 78.947 10.636 78.0568 10.6276C76.9313 10.6168 75.8057 10.6276 74.6806 10.6205C74.4867 10.6205 74.4314 10.6749 74.4326 10.8668C74.4372 11.9175 74.4314 12.9693 74.4314 14.0213L74.433 14.0217Z" fill="#808080"/>
<path id="Vector_2" d="M30.0213 17.2506C30.0213 19.9682 30.0175 22.6857 30.0263 25.4033C30.0263 25.7286 29.9147 25.9263 29.6282 26.0864C28.4372 26.7516 27.2462 27.4185 26.0799 28.1255C25.6973 28.3575 25.3248 28.1108 25.3269 27.6886C25.3487 22.3094 25.3462 16.9299 25.3583 11.5504C25.3583 11.3171 25.2858 11.1971 25.0848 11.0817C20.4391 8.42181 15.7964 5.75734 11.1568 3.08827C11.1086 3.06026 11.0607 3.03141 11.0129 3.00465C10.6353 2.78641 10.6244 2.44985 11.0012 2.23035C11.9573 1.67262 12.9192 1.12535 13.8786 0.573476C14.1505 0.417529 14.427 0.269526 14.6921 0.103127C14.9044 -0.0306609 15.0936 -0.0348507 15.3142 0.0939203C16.5728 0.82641 17.8343 1.54929 19.0953 2.27551C22.6059 4.29878 26.1172 6.32037 29.6294 8.34029C29.9177 8.50544 30.0238 8.72368 30.0234 9.03557C30.0203 11.7738 30.0196 14.5121 30.0213 17.2506Z" fill="#808080"/>
<path id="Vector_3" d="M58.9726 6.92508H67.0479C67.4959 6.92508 67.6037 7.03212 67.6037 7.47696C67.6037 8.36219 67.6037 9.247 67.6037 10.1314C67.6037 10.5374 67.5198 10.6231 67.1171 10.6235H61.5576C61.269 10.6235 61.2686 10.6235 61.2686 10.9111V25.9602C61.2686 26.0509 61.2686 26.1417 61.2686 26.232C61.2606 26.4807 61.1587 26.5844 60.9061 26.5857C60.2911 26.5886 59.6761 26.5857 59.0603 26.5857C58.4033 26.5857 57.7459 26.5857 57.0885 26.5857C56.8079 26.5857 56.7147 26.4941 56.6984 26.2123C56.6929 26.122 56.6959 26.0313 56.6959 25.9406V10.9968C56.6959 10.6753 56.6959 10.6749 56.3762 10.6749H50.9225C50.4551 10.6749 50.3607 10.5796 50.3607 10.1109C50.3607 9.20534 50.3607 8.29948 50.3607 7.39335C50.3607 7.02961 50.4677 6.92508 50.8348 6.92508H58.9726Z" fill="#808080"/>
<path id="Vector_4" d="M38.8605 16.6924V7.41087C38.8605 6.97648 38.9532 6.88409 39.3899 6.88367C40.5718 6.88367 41.7535 6.88367 42.9348 6.88367C43.3674 6.88367 43.463 6.98023 43.463 7.41379V22.1723C43.463 22.4804 43.463 22.4804 43.7625 22.4804H52.8241C53.2239 22.4804 53.3091 22.562 53.3095 22.9533C53.3095 23.9846 53.3095 25.0158 53.3095 26.0471C53.3095 26.4606 53.2503 26.5175 52.8308 26.5175C48.342 26.5175 43.8531 26.5175 39.3643 26.5175C38.9448 26.5175 38.8609 26.4309 38.8609 26.0158C38.8606 22.9077 38.8605 19.7999 38.8605 16.6924Z" fill="#808080"/>
<path id="Vector_5" d="M0.00473634 18.4078C0.00473634 16.0387 0.00641932 13.6695 0.00977547 11.3003C0.0113931 11.1642 0.0509048 11.0312 0.123893 10.9161C0.237163 10.7464 0.409574 10.7259 0.605908 10.8367C1.37586 11.2709 2.14386 11.7084 2.9099 12.1491C3.40535 12.4325 3.8945 12.7269 4.39582 12.9999C4.63285 13.1291 4.70082 13.3147 4.70041 13.5655C4.69705 16.1429 4.69634 18.7204 4.6983 21.2981C4.6983 21.8207 4.70501 22.3433 4.69453 22.8655C4.69117 23.0327 4.74865 23.1289 4.89339 23.2121C7.27065 24.5815 9.64512 25.9536 12.0168 27.3286C12.5408 27.6317 13.0631 27.9381 13.5879 28.2404C13.7742 28.3479 13.8618 28.498 13.861 28.717C13.8568 30.1101 13.861 31.5036 13.8585 32.8979C13.8585 33.3808 13.5229 33.5769 13.1033 33.3365C10.6044 31.903 8.10562 30.4686 5.60698 29.0331C3.845 28.0216 2.08122 27.0122 0.315605 26.0049C0.0978758 25.8795 -0.000711656 25.7277 0.000127379 25.4714C0.00893725 23.1172 0.00473634 20.7625 0.00473634 18.4078Z" fill="#808080"/>
<path id="Vector_6" d="M12.1045 14.9034C12.1045 16.1577 12.1079 17.412 12.1003 18.6662C12.1003 18.8435 12.1587 18.9443 12.3101 19.0304C14.4762 20.261 16.6405 21.4946 18.803 22.7313C18.9729 22.8283 19.147 22.9165 19.1474 23.1586C19.1474 23.4094 18.9838 23.5282 18.7975 23.6335C17.6229 24.2995 16.4482 24.9614 15.2736 25.6311C15.0491 25.7595 14.857 25.752 14.6313 25.6207C12.3511 24.2954 10.0676 22.9757 7.78097 21.6618C7.55359 21.5314 7.46047 21.3742 7.46131 21.1116C7.46858 18.5279 7.46858 15.9438 7.46131 13.3594C7.46131 13.0931 7.56115 12.9355 7.78392 12.8088C9.00597 12.1144 10.2234 11.412 11.4429 10.7134C11.8515 10.4792 12.1469 10.6498 12.1477 11.1231C12.1494 12.3838 12.1494 13.6444 12.1477 14.9051L12.1045 14.9034Z" fill="#808080"/>
<path id="Vector_7" d="M10.2682 7.87203C10.1515 8.01711 10.0891 8.15593 9.98166 8.21906C8.71681 8.95824 7.44441 9.68571 6.17578 10.4186C6.0021 10.519 5.84479 10.4918 5.68244 10.3981C4.55897 9.74843 3.43508 9.0994 2.31077 8.45109C2.17191 8.37082 2.02844 8.29807 1.89126 8.21404C1.56277 8.0121 1.55564 7.70689 1.89126 7.51499C2.79783 6.99238 3.71028 6.47939 4.61812 5.96263C4.9701 5.76278 5.32374 5.56587 5.67445 5.36394C5.74279 5.32098 5.82204 5.29839 5.90283 5.29883C5.98363 5.29928 6.06261 5.32274 6.13047 5.36645C7.40119 6.09517 8.674 6.82097 9.94136 7.55555C10.0597 7.62244 10.1419 7.74619 10.2682 7.87203Z" fill="#808080"/>
<path id="Vector_8" d="M16.9701 30.453C16.9701 29.7635 16.9776 29.0733 16.9667 28.3855C16.9625 28.1309 17.0628 27.972 17.2805 27.8475C18.4917 27.1555 19.6974 26.454 20.906 25.757C21.2395 25.5647 21.5311 25.7248 21.5353 26.1111C21.5428 26.724 21.5378 27.3365 21.5378 27.9507C21.5378 28.7095 21.5315 29.4684 21.5411 30.2272C21.5445 30.4781 21.4526 30.6411 21.2324 30.767C20.0523 31.4426 18.8718 32.1186 17.7034 32.8156C17.2201 33.1037 16.9349 32.9954 16.9625 32.3975C16.9932 31.7486 16.9701 31.1002 16.9701 30.453Z" fill="#808080"/>
</g>
</svg>
