<svg width="192" height="34" viewBox="0 0 192 34" fill="none" xmlns="http://www.w3.org/2000/svg">
<g id="merlin chain">
<path id="Vector" d="M12.7962 15.6725L9.45108 16.2669C9.26034 16.2613 9.06964 16.2792 8.88335 16.3203C8.67621 16.427 8.35404 16.648 8.37706 16.77C8.40248 16.8947 8.45752 17.0117 8.53758 17.1111C8.61764 17.2105 8.72031 17.2895 8.83728 17.3416C9.60449 17.5169 10.3717 17.6083 11.1389 17.7226C11.4721 17.7411 11.8031 17.787 12.1287 17.8598C12.4892 17.9741 13.0954 18.1723 13.103 18.3476C13.103 18.7883 12.9358 19.2128 12.6349 19.5365C10.0341 21.983 7.38738 24.3838 4.75584 26.7922C4.67569 26.903 4.56695 26.9905 4.44116 27.0454C4.31536 27.1003 4.1771 27.1206 4.04069 27.1043C3.90428 27.0879 3.77474 27.0355 3.6657 26.9524C3.55667 26.8693 3.47199 26.7587 3.4207 26.6321C1.93895 24.7036 0.901683 22.4754 0.382007 20.1049C-0.137669 17.7344 -0.127015 15.2795 0.413288 12.9135C0.880717 10.6741 1.82944 8.56144 3.19462 6.7199C4.5598 4.87837 6.30928 3.35142 8.3233 2.24348C11.5734 0.308295 15.4131 -0.408086 19.1486 0.223804C21.3013 0.541486 23.3692 1.28119 25.2316 2.39987C27.094 3.51856 28.7139 4.99391 29.9971 6.74014C31.446 8.64262 32.4516 10.841 32.9412 13.1765C33.4308 15.5121 33.3921 17.9264 32.828 20.2453C32.3778 22.368 31.492 24.3757 30.2262 26.1433C28.9603 27.9109 27.3415 29.4004 25.4706 30.519C22.3273 32.5194 18.5822 33.3734 14.8753 32.935C11.9822 32.6452 9.21945 31.5927 6.87316 29.8865C6.10595 29.3225 6.0446 29.0024 6.7044 28.3012C9.02138 25.8369 11.323 23.3701 13.6093 20.9008C13.6591 20.8182 13.7242 20.7458 13.8011 20.6874C14.1771 20.474 14.5683 20.2834 14.9519 20.0777C15.1263 20.4386 15.2701 20.8133 15.3816 21.198C15.5811 22.2498 15.7038 23.3168 15.9186 24.3609C15.9647 24.5972 16.2717 24.7877 16.4558 24.9935C16.6246 24.7725 16.8931 24.5743 16.9391 24.338C17.1309 23.3549 17.2461 22.3641 17.4072 21.3809C17.5146 20.695 17.8292 20.5654 18.3739 20.9694C20.2075 22.3336 22.0258 23.7131 23.8824 25.0545C24.1202 25.2221 24.5192 25.1764 24.8414 25.2298C24.7954 24.9097 24.8415 24.5057 24.688 24.2771C23.3301 22.4175 21.9183 20.5959 20.5373 18.7515C20.1537 18.2409 20.3456 17.8751 20.9977 17.7836C21.9951 17.654 22.9847 17.5245 23.9744 17.3416C24.2122 17.2958 24.4118 17.0519 24.6343 16.9071C24.3964 16.709 24.1817 16.3965 23.9131 16.3355C22.9388 16.1298 21.9413 16.0078 20.9516 15.8478C20.2611 15.7411 20.146 15.5048 20.545 14.9637C21.8876 13.1422 23.2456 11.3359 24.5959 9.52959C24.6803 9.41527 24.8414 9.3162 24.8568 9.20187C24.8807 8.94838 24.8807 8.69322 24.8568 8.43973C24.6189 8.43973 24.3196 8.37113 24.1431 8.48546C23.3759 8.97323 22.6625 9.51435 21.9337 10.0555C20.7445 10.9243 19.5631 11.816 18.3739 12.6849C17.7678 13.1345 17.5146 13.0126 17.3995 12.2581C17.2614 11.3206 17.1309 10.3756 16.9468 9.44574C16.8931 9.19423 16.6475 8.98846 16.4864 8.75982C16.2715 8.99608 15.9264 9.20949 15.8651 9.48386C15.6579 10.4137 15.5658 11.3587 15.42 12.2962C15.3126 12.9897 15.0287 13.1269 14.461 12.7153C12.612 11.3816 10.7861 10.0021 8.92943 8.67599C8.63719 8.53884 8.32301 8.4537 8.00113 8.42447C8.04716 8.76744 8.00111 9.18661 8.1699 9.44574C9.32072 11.0462 10.5328 12.601 11.7143 14.1863C12.0826 14.5978 12.3359 15.0551 12.7962 15.6725Z" fill="#808080"/>
<path id="Vector_2" d="M57.0641 14.5216C56.9567 14.7579 56.8569 14.9941 56.7418 15.2304C55.2381 18.4111 53.7318 21.5867 52.223 24.7572C51.9928 25.245 51.7704 25.7251 51.1182 25.7175C50.4661 25.7099 50.2665 25.2221 50.0364 24.7343C48.5428 21.5892 47.0392 18.4416 45.5252 15.2914C45.383 15.0656 45.2041 14.8647 44.9959 14.6969L44.8195 14.7655C44.8195 15.078 44.735 15.3981 44.735 15.7182C44.735 18.6143 44.735 21.5181 44.7811 24.4142C44.7811 25.6794 44.7274 25.7404 43.4538 25.7327C41.8043 25.7327 41.8272 25.7327 41.8349 24.0789C41.8349 18.8277 41.8349 13.5765 41.8349 8.32536C41.8349 7.29647 41.95 7.18977 43.0011 7.22787C43.2849 7.22787 43.5766 7.22787 43.8604 7.22787C44.1449 7.2003 44.4298 7.27409 44.6646 7.43604C44.8993 7.59799 45.0683 7.83757 45.1416 8.11196C45.648 9.33902 46.2771 10.5127 46.8602 11.7093C47.6274 13.2336 48.3946 14.8188 49.1618 16.366C49.6758 17.4101 50.1669 18.4619 50.6962 19.4984C50.7477 19.5828 50.8181 19.6542 50.9019 19.7071C50.9858 19.76 51.0807 19.7929 51.1795 19.8033C51.2761 19.778 51.3658 19.7312 51.4415 19.6665C51.5173 19.6018 51.5772 19.5209 51.6169 19.4298C53.2587 16.0916 54.893 12.7433 56.5195 9.38476C56.7726 8.87412 56.9721 8.34062 57.2406 7.86047C57.3403 7.66231 57.5397 7.39556 57.7085 7.38031C58.4732 7.30258 59.2429 7.28728 60.0101 7.33459C60.1559 7.33459 60.3709 7.80712 60.3709 8.09673C60.3709 10.6347 60.3709 13.1802 60.3709 15.7182C60.3709 18.6372 60.3709 21.5638 60.3709 24.4828C60.3709 25.7327 60.3247 25.7861 59.0434 25.7861C57.4706 25.7861 57.509 25.7861 57.509 24.1856C57.509 21.2666 57.509 18.3399 57.509 15.4209C57.509 15.2304 57.4631 15.0475 57.4478 14.8646L57.0641 14.5216Z" fill="#808080"/>
<path id="Vector_3" d="M124.779 16.427C124.924 17.5505 125.144 18.6632 125.438 19.7576C125.731 20.7338 126.328 21.5928 127.142 22.2116C127.957 22.8305 128.947 23.1773 129.973 23.2025C131.095 23.3679 132.242 23.1583 133.232 22.6066C134.222 22.0548 135 21.1921 135.443 20.1539C135.711 19.6052 136.034 19.3917 136.632 19.6204C137.077 19.7728 137.56 19.8338 138.021 19.9634C138.657 20.1387 138.849 20.4816 138.588 21.0837C138.145 22.2183 137.439 23.2338 136.529 24.0491C135.619 24.8643 134.53 25.4566 133.348 25.7785C131.734 26.2468 130.026 26.3019 128.384 25.9386C124.909 25.1764 122.883 22.9586 122.001 19.6509C121.314 17.2055 121.438 14.6053 122.354 12.2352C122.78 10.9944 123.515 9.88061 124.49 8.99723C125.465 8.11385 126.649 7.48952 127.932 7.18219C130.283 6.52954 132.794 6.77141 134.975 7.86051C136.38 8.55869 137.509 9.70446 138.182 11.1149C138.949 12.6391 138.949 12.6391 137.292 13.2108C137.085 13.2793 136.878 13.3327 136.67 13.3861C136.548 13.4331 136.418 13.4553 136.287 13.4511C136.156 13.4469 136.027 13.4165 135.908 13.3617C135.789 13.3069 135.682 13.2289 135.595 13.1322C135.507 13.0355 135.439 12.9223 135.397 12.7992C135.062 12.1496 134.624 11.5577 134.1 11.0463C132.619 9.68965 130.824 9.52199 128.952 9.96403C126.405 10.528 125.246 12.8525 124.993 14.9942C124.932 15.4667 124.94 15.9392 124.909 16.4118L124.779 16.427Z" fill="#808080"/>
<path id="Vector_4" d="M71.4572 19.6813H67.4447C66.4243 19.6813 66.2938 19.8642 66.6007 20.8169C66.7517 21.4231 67.0827 21.9703 67.5505 22.3875C68.0183 22.8047 68.6015 23.0727 69.2245 23.1567C69.8567 23.3084 70.5197 23.2755 71.1335 23.0619C71.7474 22.8482 72.2859 22.463 72.6846 21.9525C72.8328 21.6955 73.0767 21.5066 73.3638 21.4268C73.6509 21.3469 73.9581 21.3825 74.219 21.5257C74.5815 21.6469 74.9505 21.7486 75.324 21.8305C75.9914 22.0363 76.1755 22.4174 75.8149 22.9966C75.1411 24.0871 74.1637 24.9604 73.001 25.5109C71.8382 26.0614 70.5399 26.2655 69.2629 26.0985C68.3407 26.0358 67.4414 25.7856 66.6205 25.3634C65.7997 24.9413 65.0748 24.3562 64.4908 23.6444C63.4128 22.2862 62.8675 20.5855 62.9564 18.8582C62.9191 17.3061 63.3406 15.7772 64.1687 14.4606C64.6079 13.7523 65.1884 13.1407 65.8745 12.6636C66.5606 12.1865 67.3378 11.8539 68.1581 11.6864C70.0838 11.3053 71.9482 11.3663 73.5901 12.5095C74.4291 13.0876 75.1192 13.8539 75.6044 14.7464C76.0896 15.6389 76.3561 16.6324 76.3826 17.6464C76.5437 20.1005 76.3443 19.6356 74.526 19.6813C74.0043 19.6813 73.475 19.6813 72.9916 19.6813H71.4572ZM69.8536 17.3034C70.6209 17.3034 71.4265 17.3034 72.2167 17.3034C73.2064 17.3034 73.4443 16.9604 72.9839 15.9925C72.0019 13.9347 69.9687 13.828 68.1504 14.613C67.7715 14.7757 67.4358 15.0236 67.1695 15.337C66.9033 15.6504 66.7138 16.0209 66.616 16.4193C66.4396 17.0748 66.616 17.2882 67.3141 17.2958L69.8536 17.3034Z" fill="#808080"/>
<path id="Vector_5" d="M165.993 24.2618C165.161 25.1008 164.11 25.6917 162.957 25.9678C161.805 26.244 160.597 26.1942 159.472 25.8242C156.549 24.9858 155.973 21.419 157.362 19.506C158.536 17.8826 160.308 17.6235 162.042 17.2196C163.093 16.9909 164.167 16.8766 165.234 16.7394C165.725 16.6785 165.778 16.3507 165.748 15.9773C165.683 15.5612 165.479 15.179 165.169 14.8927C164.858 14.6063 164.459 14.4325 164.037 14.3996C162.548 14.171 161.16 14.3387 160.201 15.7182C160.177 15.7588 160.145 15.7949 160.109 15.8248C159.648 16.2821 157.385 15.7334 157.377 15.1085C157.414 14.5924 157.609 14.1001 157.937 13.6985C159.426 11.694 161.582 11.2977 163.883 11.5264C164.878 11.618 165.848 11.8892 166.745 12.3266C167.366 12.622 167.891 13.0856 168.259 13.664C168.626 14.2424 168.822 14.9121 168.824 15.5962C168.893 18.6829 168.916 21.7696 168.962 24.8563C168.962 25.466 168.694 25.7327 168.095 25.7099C167.858 25.6909 167.619 25.6909 167.382 25.7099C166.615 25.8089 166.147 25.6565 166.193 24.7724C166.223 24.6429 166.093 24.5057 165.993 24.2618ZM165.732 20.2148C165.686 19.8795 165.978 19.1554 165.165 19.3078C163.642 19.5722 162.142 19.9492 160.676 20.4358C160.433 20.5869 160.225 20.7871 160.065 21.0235C159.905 21.2599 159.797 21.5271 159.748 21.8077C159.602 22.425 160.024 22.9128 160.584 23.332C162.195 24.5057 165.817 22.9128 165.732 20.2148Z" fill="#808080"/>
<path id="Vector_6" d="M141.504 16.3964C141.504 13.6603 141.504 10.9319 141.504 8.19578C141.504 7.26596 141.55 7.25833 142.486 7.22784C144.381 7.17449 144.266 7.15165 144.258 9.01128C144.258 10.0326 144.204 11.0538 144.212 12.0599C144.246 12.3039 144.313 12.5424 144.411 12.7686C144.649 12.7001 144.949 12.7001 145.11 12.5552C146.514 11.313 150.158 11.031 151.899 12.2656C152.539 12.7265 153.07 13.3207 153.454 14.0066C153.838 14.6925 154.067 15.4535 154.124 16.2364C154.245 17.5845 154.296 18.9378 154.278 20.291C154.278 21.8153 154.278 23.2862 154.278 24.78C154.278 25.5422 154.117 25.6946 153.357 25.7098C152.928 25.7098 152.498 25.7098 152.068 25.7098C151.378 25.7479 151.125 25.4279 151.132 24.7724C151.132 22.7756 151.132 20.7788 151.132 18.7819C151.236 17.5404 150.878 16.3042 150.127 15.3066C149.757 14.8953 149.278 14.5967 148.744 14.4456C148.21 14.2945 147.644 14.297 147.112 14.453C146.586 14.5236 146.097 14.7578 145.714 15.122C145.33 15.4863 145.073 15.9618 144.979 16.4803C144.787 17.3815 144.666 18.2964 144.619 19.2164C144.565 21.0455 144.619 22.8747 144.619 24.7038C144.619 25.6413 144.542 25.7022 143.583 25.7022H142.647C141.588 25.7022 141.534 25.6489 141.534 24.559C141.534 23.1795 141.534 21.8077 141.534 20.4282L141.504 16.3964Z" fill="#808080"/>
<path id="Vector_7" d="M181.967 13.0736C182.178 12.9614 182.383 12.8367 182.58 12.7001C183.444 12.0736 184.451 11.6709 185.511 11.5285C186.57 11.3861 187.649 11.5085 188.649 11.8846C189.251 12.0969 189.797 12.4426 190.245 12.8956C190.693 13.3485 191.031 13.8967 191.235 14.4988C191.548 15.2666 191.732 16.0802 191.779 16.9072C191.871 19.5899 191.871 22.2422 191.894 24.9554C191.913 25.0684 191.905 25.1843 191.869 25.2933C191.834 25.4023 191.772 25.5012 191.69 25.5818C191.609 25.6625 191.508 25.7224 191.398 25.7566C191.288 25.7909 191.172 25.7984 191.058 25.7785C190.605 25.7785 190.153 25.7785 189.692 25.7785C188.871 25.7785 188.733 25.649 188.726 24.8411C188.726 23.1796 188.779 21.5105 188.726 19.8491C188.693 18.7394 188.559 17.6349 188.327 16.549C188.188 15.9153 187.821 15.3534 187.296 14.9678C186.771 14.5823 186.123 14.3994 185.473 14.4531C184.821 14.415 184.175 14.5978 183.641 14.9716C183.108 15.3454 182.717 15.8881 182.534 16.5109C182.348 17.2207 182.245 17.9496 182.227 18.683C182.189 20.7026 182.227 22.7223 182.227 24.742C182.227 25.6185 182.082 25.7862 181.192 25.7785C179.097 25.7785 179.043 26.1367 179.059 23.736C179.059 20.2454 179.059 16.7471 179.059 13.2565C179.059 11.8999 179.059 11.8541 180.455 11.877C180.624 11.877 180.793 11.877 180.954 11.877C181.499 11.8237 181.844 11.9837 181.821 12.6392C181.775 12.6773 181.89 12.8068 181.967 13.0736Z" fill="#808080"/>
<path id="Vector_8" d="M106.166 12.9669C106.404 12.826 106.634 12.6734 106.856 12.5096C108.606 11.1835 112.073 11.0691 113.761 12.5096C114.364 12.9851 114.857 13.5836 115.206 14.2648C115.556 14.9459 115.754 15.6937 115.787 16.4575C115.933 19.2774 115.887 22.105 115.917 24.9325C115.917 25.4813 115.679 25.7785 115.096 25.7633C114.644 25.7633 114.191 25.7633 113.738 25.7633C112.971 25.7633 112.802 25.6337 112.802 24.7954C112.802 23.0119 112.856 21.2285 112.802 19.4603C112.762 18.3741 112.59 17.2966 112.288 16.2517C112.145 15.7796 111.866 15.3593 111.486 15.0425C111.106 14.7256 110.641 14.5261 110.148 14.4683C109.59 14.3489 109.009 14.3823 108.469 14.5649C107.928 14.7474 107.448 15.0723 107.079 15.5048C106.461 16.3045 106.165 17.3047 106.25 18.3095C106.25 20.4435 106.25 22.5851 106.25 24.7191C106.25 25.6032 106.097 25.7633 105.222 25.7709H104.071C103.251 25.7709 103.043 25.5651 103.043 24.7725C103.043 21.7849 103.043 18.7922 103.043 15.7944C103.043 14.8036 103.043 13.8052 103.043 12.8068C103.043 11.9608 103.189 11.8618 104.01 11.8618C104.225 11.877 104.44 11.877 104.655 11.8618C105.314 11.8008 105.844 11.9075 105.905 12.7154C105.936 12.7458 106.043 12.8144 106.166 12.9669Z" fill="#808080"/>
<path id="Vector_9" d="M89.3638 16.2669V7.88335C89.3638 6.94592 89.4482 6.86969 90.3842 6.86969C90.8139 6.86969 91.2434 6.86969 91.6731 6.86969C92.2869 6.86969 92.5248 7.12882 92.5248 7.73092C92.5248 10.3908 92.4864 13.0659 92.5248 15.7106C92.5248 18.5534 92.563 21.4038 92.6091 24.2466C92.6091 25.6413 92.5324 25.7709 91.1361 25.7709C89.1106 25.7709 89.4022 25.8776 89.3868 23.9951C89.3868 21.4343 89.3868 18.8658 89.3868 16.305L89.3638 16.2669Z" fill="#808080"/>
<path id="Vector_10" d="M82.037 13.4165C82.5926 12.9853 83.1916 12.6124 83.8245 12.3037C84.6149 12.0639 85.4269 11.9005 86.249 11.816C86.4178 11.816 86.7783 11.9608 86.7783 12.0446C86.8193 12.8372 86.8065 13.6316 86.7399 14.4225C86.7399 14.5216 86.2566 14.6435 85.9727 14.6283C85.5055 14.5993 85.0372 14.664 84.5956 14.8185C84.1541 14.973 83.7483 15.2142 83.4025 15.5276C83.0144 15.8625 82.7063 16.2791 82.5006 16.7471C82.2949 17.2152 82.1969 17.7228 82.2135 18.2332C82.2135 20.3977 82.2135 22.5546 82.2135 24.7191C82.2135 25.5727 82.0753 25.7251 81.2314 25.7327H79.8504C79.7446 25.7412 79.6382 25.7277 79.538 25.6932C79.4377 25.6587 79.3455 25.6039 79.2677 25.5323C79.1898 25.4606 79.1278 25.3737 79.0854 25.2771C79.0431 25.1804 79.0214 25.076 79.0217 24.9706C79.0217 24.5971 79.0217 24.2084 79.0217 23.835V13.2107C79.0217 12.9744 79.0217 12.7382 79.0217 12.5019C79.0096 12.4018 79.0219 12.3003 79.0573 12.2058C79.0928 12.1113 79.1505 12.0266 79.2255 11.9587C79.3006 11.8908 79.3909 11.8418 79.4889 11.8156C79.5869 11.7895 79.6898 11.787 79.7889 11.8084H80.0806C80.5332 11.8084 81.0933 11.694 81.4002 11.9074C81.7071 12.1208 81.6687 12.6696 81.7991 13.0964C81.8634 13.2133 81.9434 13.321 82.037 13.4165Z" fill="#808080"/>
<path id="Vector_11" d="M175.445 18.7668C175.445 20.7865 175.445 22.7985 175.445 24.8182C175.445 25.4355 175.2 25.7328 174.548 25.7328C171.993 25.7328 172.3 25.9919 172.246 23.5683C172.246 20.131 172.246 16.709 172.246 13.2565C172.246 11.7931 172.246 11.7931 173.78 11.8008H174.279C175.345 11.8008 175.399 11.8389 175.407 12.9287C175.407 14.8722 175.407 16.8157 175.407 18.7591L175.445 18.7668Z" fill="#808080"/>
<path id="Vector_12" d="M96.3685 18.7134C96.3685 16.7699 96.3685 14.8265 96.3685 12.8754C96.3685 11.7931 96.4068 11.8008 97.5346 11.8084C97.9384 11.8313 98.343 11.8313 98.7467 11.8084C99.2531 11.755 99.4604 11.9837 99.4604 12.4486C99.4604 13.2793 99.4604 14.1101 99.4604 14.9408C99.4604 18.1672 99.4604 21.3936 99.4604 24.62C99.4604 25.6032 99.3298 25.7404 98.3631 25.7404C96.0998 25.7404 96.3454 25.9462 96.3224 23.7055C96.3224 22.044 96.3224 20.3825 96.3224 18.721L96.3685 18.7134Z" fill="#808080"/>
<path id="Vector_13" d="M173.911 10.5889C173.642 10.5889 173.381 10.5889 173.143 10.5889C173.03 10.5997 172.916 10.5854 172.809 10.547C172.702 10.5085 172.605 10.447 172.525 10.3667C172.445 10.2865 172.384 10.1896 172.346 10.083C172.309 9.97648 172.295 9.86293 172.307 9.7506C172.307 7.64708 172.361 7.86048 174.095 7.89096C174.54 7.89096 175.207 7.66232 175.338 8.27204C175.486 8.9331 175.459 9.62091 175.261 10.2689C175.169 10.528 174.417 10.5737 173.972 10.7109L173.911 10.5889Z" fill="#808080"/>
<path id="Vector_14" d="M99.798 8.40159L97.9873 10.1774L96.1768 8.40922C96.2765 8.30252 96.4146 8.12723 96.5757 7.95956C96.902 7.65029 97.2094 7.32198 97.4963 6.97638C97.8646 6.51148 98.0947 6.5191 98.4016 6.97638C98.631 7.27858 98.8878 7.55922 99.1688 7.81475C99.4143 8.05101 99.6369 8.24916 99.798 8.40159Z" fill="#808080"/>
</g>
</svg>
