<svg width="72" height="23" viewBox="0 0 72 23" fill="none" xmlns="http://www.w3.org/2000/svg">
<g id="OKX">
<path id="Vector" d="M20.9117 0.932068H0.475175C0.349141 0.932068 0.228263 0.981422 0.139179 1.06939C0.0500006 1.15727 -3.05176e-05 1.27651 -3.05176e-05 1.40093V21.5605C-3.05176e-05 21.6848 0.0500006 21.804 0.139179 21.8919C0.228263 21.9799 0.349141 22.0292 0.475175 22.0292H20.9117C21.0379 22.0292 21.1587 21.9799 21.2478 21.8919C21.337 21.804 21.387 21.6848 21.387 21.5605V1.40093C21.387 1.27651 21.337 1.15727 21.2478 1.06939C21.1587 0.981422 21.0379 0.932068 20.9117 0.932068ZM14.258 14.528C14.258 14.6524 14.2079 14.7716 14.1188 14.8596C14.0297 14.9475 13.9088 14.9969 13.7828 14.9969H7.60423C7.47819 14.9969 7.35732 14.9475 7.26814 14.8596C7.17905 14.7716 7.12902 14.6524 7.12902 14.528V8.43325C7.12902 8.30893 7.17905 8.18969 7.26814 8.10181C7.35732 8.01384 7.47819 7.96449 7.60423 7.96449H13.7828C13.9088 7.96449 14.0297 8.01384 14.1188 8.10181C14.2079 8.18969 14.258 8.30893 14.258 8.43325V14.528Z" fill="#808080"/>
<path id="Vector_2" d="M63.6983 7.96494H57.5198C57.2573 7.96494 57.0445 8.17478 57.0445 8.4337V14.5285C57.0445 14.7874 57.2573 14.9974 57.5198 14.9974H63.6983C63.9608 14.9974 64.1736 14.7874 64.1736 14.5285V8.4337C64.1736 8.17478 63.9608 7.96494 63.6983 7.96494Z" fill="#808080"/>
<path id="Vector_3" d="M56.5671 0.9328H50.3886C50.1262 0.9328 49.9133 1.14265 49.9133 1.40166V7.49636C49.9133 7.75528 50.1262 7.96522 50.3886 7.96522H56.5671C56.8297 7.96522 57.0424 7.75528 57.0424 7.49636V1.40166C57.0424 1.14265 56.8297 0.9328 56.5671 0.9328Z" fill="#808080"/>
<path id="Vector_4" d="M70.8246 0.9328H64.646C64.3835 0.9328 64.1707 1.14265 64.1707 1.40166V7.49636C64.1707 7.75528 64.3835 7.96522 64.646 7.96522H70.8246C71.087 7.96522 71.2998 7.75528 71.2998 7.49636V1.40166C71.2998 1.14265 71.087 0.9328 70.8246 0.9328Z" fill="#808080"/>
<path id="Vector_5" d="M56.5671 14.9974H50.3886C50.1262 14.9974 49.9133 15.2073 49.9133 15.4662V21.561C49.9133 21.8199 50.1262 22.0298 50.3886 22.0298H56.5671C56.8297 22.0298 57.0424 21.8199 57.0424 21.561V15.4662C57.0424 15.2073 56.8297 14.9974 56.5671 14.9974Z" fill="#808080"/>
<path id="Vector_6" d="M70.8246 14.9974H64.646C64.3835 14.9974 64.1707 15.2073 64.1707 15.4662V21.561C64.1707 21.8199 64.3835 22.0298 64.646 22.0298H70.8246C71.087 22.0298 71.2998 21.8199 71.2998 21.561V15.4662C71.2998 15.2073 71.087 14.9974 70.8246 14.9974Z" fill="#808080"/>
<path id="Vector_7" d="M45.8633 0.9328H39.6849C39.4224 0.9328 39.2096 1.14265 39.2096 1.40166V7.49636C39.2096 7.75528 39.4224 7.96522 39.6849 7.96522H45.8633C46.1258 7.96522 46.3386 7.75528 46.3386 7.49636V1.40166C46.3386 1.14265 46.1258 0.9328 45.8633 0.9328Z" fill="#808080"/>
<path id="Vector_8" d="M45.8633 14.9974H39.6849C39.4224 14.9974 39.2096 15.2073 39.2096 15.4662V21.561C39.2096 21.8199 39.4224 22.0298 39.6849 22.0298H45.8633C46.1258 22.0298 46.3386 21.8199 46.3386 21.561V15.4662C46.3386 15.2073 46.1258 14.9974 45.8633 14.9974Z" fill="#808080"/>
<path id="Vector_9" d="M39.2091 8.42786C39.2091 8.30353 39.1589 8.18429 39.0699 8.09641C38.9807 8.00844 38.8598 7.95909 38.7338 7.95909H32.08V1.4008C32.08 1.27638 32.0299 1.15715 31.9408 1.06927C31.8516 0.9813 31.7307 0.931946 31.6047 0.931946H25.4263C25.3001 0.931946 25.1793 0.9813 25.0902 1.06927C25.001 1.15715 24.951 1.27638 24.951 1.4008V21.5498C24.951 21.6741 25.001 21.7934 25.0902 21.8812C25.1793 21.9692 25.3001 22.0186 25.4263 22.0186H31.6047C31.7307 22.0186 31.8516 21.9692 31.9408 21.8812C32.0299 21.7934 32.08 21.6741 32.08 21.5498V14.9915H38.7338C38.8598 14.9915 38.9807 14.9421 39.0699 14.8542C39.1589 14.7662 39.2091 14.647 39.2091 14.5227V8.42786Z" fill="#808080"/>
</g>
</svg>
