<svg width="105" height="26" viewBox="0 0 105 26" fill="none" xmlns="http://www.w3.org/2000/svg">
<g id="rockx">
<path id="Vector" d="M24.8291 23.1376C24.6549 23.7581 24.3056 24.3133 23.8242 24.7346C23.3429 25.1558 22.7504 25.4247 22.1203 25.5081C21.6005 25.5937 21.0683 25.5522 20.5674 25.387C20.0666 25.2218 19.6118 24.9377 19.2408 24.5582C17.0201 22.3859 14.8562 20.1062 12.6355 17.8431C12.5745 17.7806 12.5093 17.7227 12.4403 17.6696H12.3509L12.4891 17.5292L12.5461 17.587C13.3596 16.761 14.23 15.9351 14.9865 15.1091C15.5957 14.4849 15.944 13.6461 15.9592 12.7675C15.9744 11.8888 15.655 11.0382 15.0677 10.3927L12.6273 7.9148L17.142 3.32236C17.4809 2.9461 17.8993 2.65263 18.3658 2.46392C18.8323 2.27521 19.3348 2.19617 19.8356 2.23272C20.3365 2.26928 20.8226 2.42044 21.2578 2.67495C21.6929 2.92946 22.0657 3.28068 22.3481 3.70228C22.803 4.33126 23.0242 5.10347 22.9721 5.88207C22.9199 6.66066 22.598 7.39539 22.0635 7.95609L17.5976 12.4907C17.5081 12.5816 17.3129 12.6889 17.2235 12.8707L17.5081 13.0689L24.0157 19.6767C24.4675 20.1111 24.785 20.6697 24.9294 21.2843C25.0739 21.8988 25.039 22.5428 24.8291 23.1376Z" fill="#808080"/>
<path id="Vector_2" d="M12.4563 17.5045L12.5133 17.5623L7.9009 22.3117C7.62321 22.6049 7.29148 22.8397 6.9244 23.0027C6.55732 23.1657 6.16218 23.2536 5.76162 23.2616C4.96479 23.3307 4.17164 23.0918 3.5409 22.5925C3.14583 22.2999 2.81822 21.9235 2.58089 21.4894C2.34355 21.0552 2.20222 20.5739 2.16661 20.0787C2.131 19.5835 2.20203 19.0863 2.37474 18.6218C2.54746 18.1573 2.81771 17.7366 3.16675 17.3888C4.56589 15.8855 6.04638 14.4731 7.44552 13.0524C7.535 12.9616 7.64063 12.8542 7.73011 12.8542L7.44552 12.5651L0.937894 5.95731C0.302259 5.19247 -0.0312209 4.21525 0.00230287 3.21506C0.0524248 2.37955 0.402045 1.59152 0.984961 0.999631C1.56788 0.40774 2.34391 0.0528882 3.16675 0.00199453C3.69181 -0.0157175 4.21417 0.0847179 4.69654 0.296057C5.17891 0.507397 5.60929 0.824395 5.95684 1.22443C8.00674 3.38849 10.1461 5.46997 12.2774 7.64229L12.562 7.93141L12.497 8.00572L12.4075 8.10483L12.3668 8.15439L10.2275 10.3184C9.62794 10.9225 9.26388 11.7263 9.20251 12.5816V12.6394C9.19113 12.9719 9.21852 13.3046 9.28393 13.6306C9.28393 13.738 9.34892 13.8536 9.39773 13.9775L9.43844 14.0519C9.4907 14.2062 9.56176 14.3533 9.64995 14.4897C9.67679 14.541 9.70656 14.5907 9.73932 14.6383C9.81652 14.8063 9.92112 14.9599 10.0485 15.0926L11.1954 16.1994L12.4563 17.5045Z" fill="#808080"/>
<path id="Vector_3" d="M104.076 21.8077C101.936 18.7764 99.8051 15.8524 97.5681 12.9285C97.3647 12.7302 97.3647 12.6394 97.5681 12.4659C98.593 11.0452 99.5285 9.7154 100.44 8.33602L103.799 3.50402V3.42144H99.2438C99.1544 3.42144 98.9592 3.50403 98.9592 3.61967L96.7385 6.74189L94.8838 9.40151C94.7944 9.31065 94.6886 9.19504 94.6886 9.11244C93.379 7.32007 92.1749 5.51942 90.8734 3.61967C90.8314 3.53151 90.7655 3.4574 90.6833 3.40617C90.6011 3.35493 90.5063 3.32873 90.4098 3.3306H85.944C86.0253 3.42145 86.1392 3.52881 86.1392 3.61967L92.2888 12.3172C92.3329 12.3876 92.3565 12.4692 92.3565 12.5526C92.3565 12.636 92.3329 12.7177 92.2888 12.788C90.5236 15.2659 88.7503 17.7439 86.8794 20.164C86.6912 20.4637 86.4701 20.7408 86.2204 20.99L81.1852 14.8612L85.944 8.90595H81.47C81.4117 8.91729 81.3561 8.94075 81.3071 8.97486C81.2582 9.00897 81.2167 9.053 81.1852 9.10417L79.8755 10.7148L77.541 13.5562V2.36417H73.6445V22.1216H77.5328V16.3397C77.5442 16.3386 77.5555 16.3398 77.5664 16.3435C77.5772 16.3471 77.5871 16.353 77.5956 16.3608C77.604 16.3686 77.6108 16.3781 77.6154 16.3887C77.62 16.3993 77.6224 16.4107 77.6224 16.4223L82.0964 21.8077C82.1777 22.0059 82.3809 22.0059 82.5518 22.0059H90.0113C90.1071 22.0105 90.2019 21.9853 90.2833 21.9336C90.3647 21.882 90.4287 21.8064 90.4666 21.7169C91.2801 20.5935 92.1507 19.3463 93.0861 18.2229C93.6556 17.463 94.2818 16.571 94.8513 15.745C94.9407 15.8359 95.0465 15.9433 95.0465 16.0341L99.2357 21.7003C99.3252 21.8986 99.4309 21.8986 99.6098 21.8986H104.165L104.076 21.8077ZM42.0743 17.9091L38.9101 13.8618C39.1134 13.771 39.1947 13.771 39.2842 13.6636C40.2385 13.2941 41.0802 12.6758 41.7246 11.8712C42.1481 11.2434 42.4265 10.5267 42.5392 9.77442C42.6519 9.02215 42.5959 8.25374 42.3754 7.52653C42.2219 6.76036 41.8991 6.03962 41.4312 5.41863C40.9634 4.79764 40.3628 4.29266 39.6747 3.94181C38.7406 3.48843 37.7164 3.25951 36.6812 3.27277H29.5065V21.9894H33.5738V14.3244C33.8585 14.3244 34.2326 14.2335 34.3872 14.6134C36.2419 17.0914 38.2024 19.4371 40.1709 21.7912L40.3662 21.9894L40.6508 22.072H45.2957L42.0743 17.9091ZM36.6649 10.7396C35.64 10.8305 34.615 10.7396 33.59 10.7396V7.23745H36.6649C36.9419 7.23143 37.2156 7.29729 37.4605 7.42882C37.7053 7.56036 37.9131 7.7532 38.064 7.98907C38.2288 8.25413 38.3226 8.55828 38.3361 8.87141C38.3496 9.18455 38.2822 9.49587 38.1409 9.77452C37.9996 10.0532 37.7891 10.2895 37.5302 10.4602C37.2713 10.631 36.9731 10.7301 36.6649 10.7479V10.7396ZM50.9085 8.65811C49.1506 8.62999 47.4503 9.29508 46.1654 10.5135C44.8805 11.732 44.111 13.4089 44.0186 15.1916C43.9615 16.1168 44.0928 17.044 44.4042 17.9153C44.7157 18.7867 45.2006 19.5836 45.8288 20.2563C46.4569 20.929 47.2147 21.463 48.055 21.8252C48.8954 22.1873 49.8004 22.3697 50.7133 22.3611C51.6169 22.4034 52.5196 22.2608 53.3679 21.9419C54.2162 21.623 54.9927 21.1343 55.6514 20.5048C56.3101 19.8752 56.8375 19.1177 57.2022 18.2772C57.567 17.4367 57.7617 16.5303 57.7748 15.6119C57.7879 14.6935 57.6192 13.7818 57.2785 12.9309C56.9378 12.08 56.4323 11.3074 55.7918 10.6587C55.1513 10.0101 54.3889 9.49881 53.55 9.15514C52.7112 8.81147 51.8129 8.64242 50.9085 8.65811ZM53.6092 16.4058C53.489 17.0531 53.1378 17.6326 52.623 18.0334C52.1082 18.4343 51.4658 18.6282 50.8189 18.5781C50.2936 18.5943 49.7763 18.4439 49.339 18.1479C48.9016 17.8518 48.5659 17.4248 48.3786 16.9262C48.0576 16.31 47.9294 15.6091 48.0108 14.917C48.0922 14.2249 48.3793 13.5744 48.8341 13.0523C49.1944 12.6625 49.6564 12.3847 50.1663 12.2516C50.6763 12.1186 51.213 12.1356 51.7138 12.3007C52.2029 12.4199 52.6479 12.6796 52.9955 13.0487C53.3432 13.4178 53.5787 13.8807 53.6742 14.3822C53.8227 15.0513 53.8005 15.7479 53.6092 16.4058ZM68.8778 16.8931C68.3083 16.8931 67.8526 16.8931 67.6818 17.5622C67.6818 17.6448 67.5924 17.6448 67.5924 17.6448C67.277 18.1261 66.809 18.4836 66.266 18.6579C65.723 18.8321 65.1377 18.8128 64.6071 18.6029C64.1242 18.4693 63.686 18.2051 63.3393 17.8385C62.9926 17.472 62.7504 17.0168 62.6384 16.5214C62.3653 15.5813 62.4346 14.5726 62.8336 13.6801C63.6471 11.7968 66.6569 11.516 67.7144 13.3993C67.8077 13.589 67.956 13.7452 68.1392 13.847C68.3223 13.9489 68.5317 13.9915 68.7393 13.9692H72.099C71.5296 11.2269 69.3006 8.18734 64.6395 8.59207C63.7433 8.68112 62.8738 8.95131 62.082 9.38674C61.2901 9.82217 60.592 10.414 60.0289 11.1275C59.4657 11.8409 59.0487 12.6616 58.8025 13.5411C58.5564 14.4207 58.4861 15.3413 58.5956 16.2488C58.8803 19.4619 61.6705 22.7823 66.4211 22.295C68.0528 22.1238 69.555 21.3153 70.6103 20.0401C71.3791 19.1226 71.893 18.0134 72.099 16.827H71.7248C70.7793 16.9293 69.8269 16.9514 68.8778 16.8931ZM12.538 7.87347C12.5217 7.90287 12.5026 7.93052 12.481 7.95605L12.5461 7.88174L12.538 7.87347Z" fill="#808080"/>
</g>
</svg>
